{
	"asset":{
		"generator":"Khronos glTF Blender I/O v4.3.47",
		"version":"2.0"
	},
	"scene":0,
	"scenes":[
		{
			"name":"Scene",
			"nodes":[
				4
			]
		}
	],
	"nodes":[
		{
			"mesh":0,
			"name":"Cylinder.001",
			"scale":[
				1.4079639911651611,
				1.4079639911651611,
				1.4079639911651611
			],
			"translation":[
				-0.009120464324951172,
				3.9169445037841797,
				-0.04594850540161133
			]
		},
		{
			"mesh":1,
			"name":"Cylinder.002",
			"scale":[
				0.39548730850219727,
				0.39548730850219727,
				0.39548730850219727
			],
			"translation":[
				-0.006429076194763184,
				4.457891464233398,
				-0.04372262954711914
			]
		},
		{
			"mesh":2,
			"name":"Cylinder.003",
			"scale":[
				0.4837130606174469,
				0.5485830903053284,
				0.4837130606174469
			],
			"translation":[
				-0.008690118789672852,
				4.994309425354004,
				-0.05033421516418457
			]
		},
		{
			"mesh":3,
			"name":"Cylinder.005",
			"scale":[
				1.00043785572052,
				2.067167282104492,
				1.00043785572052
			],
			"translation":[
				-0.005389094352722168,
				1.0250349044799805,
				9.72747802734375e-05
			]
		},
		{
			"children":[
				0,
				1,
				2,
				3
			],
			"mesh":4,
			"name":"Cylinder",
			"translation":[
				1.0171449184417725,
				8.499948501586914,
				3.6858937740325928
			]
		}
	],
	"materials":[
		{
			"doubleSided":true,
			"name":"Material.003",
			"pbrMetallicRoughness":{
				"baseColorFactor":[
					0.800000011920929,
					0.800000011920929,
					0.800000011920929,
					1
				],
				"metallicFactor":0,
				"roughnessFactor":0.5
			}
		},
		{
			"doubleSided":true,
			"name":"Material.001"
		},
		{
			"alphaMode":"BLEND",
			"doubleSided":true,
			"name":"Material.004",
			"pbrMetallicRoughness":{
				"baseColorTexture":{
					"index":0
				},
				"metallicFactor":0,
				"roughnessFactor":0.5
			}
		},
		{
			"doubleSided":true,
			"name":"Material.002"
		}
	],
	"meshes":[
		{
			"name":"Cylinder.001",
			"primitives":[
				{
					"attributes":{
						"POSITION":0,
						"NORMAL":1,
						"TEXCOORD_0":2
					},
					"indices":3,
					"material":0
				}
			]
		},
		{
			"name":"Cylinder.002",
			"primitives":[
				{
					"attributes":{
						"POSITION":4,
						"NORMAL":5,
						"TEXCOORD_0":6
					},
					"indices":7
				}
			]
		},
		{
			"name":"Cylinder.003",
			"primitives":[
				{
					"attributes":{
						"POSITION":8,
						"NORMAL":9,
						"TEXCOORD_0":10
					},
					"indices":11,
					"material":1
				}
			]
		},
		{
			"name":"Cylinder.005",
			"primitives":[
				{
					"attributes":{
						"POSITION":12,
						"NORMAL":13,
						"TEXCOORD_0":14
					},
					"indices":15,
					"material":2
				}
			]
		},
		{
			"name":"Cylinder",
			"primitives":[
				{
					"attributes":{
						"POSITION":16,
						"NORMAL":17,
						"TEXCOORD_0":18
					},
					"indices":19,
					"material":3
				}
			]
		}
	],
	"textures":[
		{
			"sampler":0,
			"source":0
		}
	],
	"images":[
		{
			"mimeType":"image/png",
			"name":"100ML",
			"uri":"100ML.png"
		}
	],
	"accessors":[
		{
			"bufferView":0,
			"componentType":5126,
			"count":896,
			"max":[
				0.40829998254776,
				0.38409626483917236,
				0.40829998254776
			],
			"min":[
				-0.4083000421524048,
				-0.3840845227241516,
				-0.40829983353614807
			],
			"type":"VEC3"
		},
		{
			"bufferView":1,
			"componentType":5126,
			"count":896,
			"type":"VEC3"
		},
		{
			"bufferView":2,
			"componentType":5126,
			"count":896,
			"type":"VEC2"
		},
		{
			"bufferView":3,
			"componentType":5123,
			"count":1524,
			"type":"SCALAR"
		},
		{
			"bufferView":4,
			"componentType":5126,
			"count":1794,
			"max":[
				1.0156396627426147,
				2.1490402221679688,
				1.0156397819519043
			],
			"min":[
				-1.0156397819519043,
				-1,
				-1.0156397819519043
			],
			"type":"VEC3"
		},
		{
			"bufferView":5,
			"componentType":5126,
			"count":1794,
			"type":"VEC3"
		},
		{
			"bufferView":6,
			"componentType":5126,
			"count":1794,
			"type":"VEC2"
		},
		{
			"bufferView":7,
			"componentType":5123,
			"count":3060,
			"type":"SCALAR"
		},
		{
			"bufferView":8,
			"componentType":5126,
			"count":384,
			"max":[
				1,
				1,
				1
			],
			"min":[
				-1,
				-1,
				-1
			],
			"type":"VEC3"
		},
		{
			"bufferView":9,
			"componentType":5126,
			"count":384,
			"type":"VEC3"
		},
		{
			"bufferView":10,
			"componentType":5126,
			"count":384,
			"type":"VEC2"
		},
		{
			"bufferView":11,
			"componentType":5123,
			"count":756,
			"type":"SCALAR"
		},
		{
			"bufferView":12,
			"componentType":5126,
			"count":512,
			"max":[
				1,
				1,
				1
			],
			"min":[
				-1,
				-1,
				-1
			],
			"type":"VEC3"
		},
		{
			"bufferView":13,
			"componentType":5126,
			"count":512,
			"type":"VEC3"
		},
		{
			"bufferView":14,
			"componentType":5126,
			"count":512,
			"type":"VEC2"
		},
		{
			"bufferView":15,
			"componentType":5123,
			"count":768,
			"type":"SCALAR"
		},
		{
			"bufferView":16,
			"componentType":5126,
			"count":706,
			"max":[
				1,
				3.4810867309570312,
				1
			],
			"min":[
				-1,
				-1.324521541595459,
				-1
			],
			"type":"VEC3"
		},
		{
			"bufferView":17,
			"componentType":5126,
			"count":706,
			"type":"VEC3"
		},
		{
			"bufferView":18,
			"componentType":5126,
			"count":706,
			"type":"VEC2"
		},
		{
			"bufferView":19,
			"componentType":5123,
			"count":1332,
			"type":"SCALAR"
		}
	],
	"bufferViews":[
		{
			"buffer":0,
			"byteLength":10752,
			"byteOffset":0,
			"target":34962
		},
		{
			"buffer":0,
			"byteLength":10752,
			"byteOffset":10752,
			"target":34962
		},
		{
			"buffer":0,
			"byteLength":7168,
			"byteOffset":21504,
			"target":34962
		},
		{
			"buffer":0,
			"byteLength":3048,
			"byteOffset":28672,
			"target":34963
		},
		{
			"buffer":0,
			"byteLength":21528,
			"byteOffset":31720,
			"target":34962
		},
		{
			"buffer":0,
			"byteLength":21528,
			"byteOffset":53248,
			"target":34962
		},
		{
			"buffer":0,
			"byteLength":14352,
			"byteOffset":74776,
			"target":34962
		},
		{
			"buffer":0,
			"byteLength":6120,
			"byteOffset":89128,
			"target":34963
		},
		{
			"buffer":0,
			"byteLength":4608,
			"byteOffset":95248,
			"target":34962
		},
		{
			"buffer":0,
			"byteLength":4608,
			"byteOffset":99856,
			"target":34962
		},
		{
			"buffer":0,
			"byteLength":3072,
			"byteOffset":104464,
			"target":34962
		},
		{
			"buffer":0,
			"byteLength":1512,
			"byteOffset":107536,
			"target":34963
		},
		{
			"buffer":0,
			"byteLength":6144,
			"byteOffset":109048,
			"target":34962
		},
		{
			"buffer":0,
			"byteLength":6144,
			"byteOffset":115192,
			"target":34962
		},
		{
			"buffer":0,
			"byteLength":4096,
			"byteOffset":121336,
			"target":34962
		},
		{
			"buffer":0,
			"byteLength":1536,
			"byteOffset":125432,
			"target":34963
		},
		{
			"buffer":0,
			"byteLength":8472,
			"byteOffset":126968,
			"target":34962
		},
		{
			"buffer":0,
			"byteLength":8472,
			"byteOffset":135440,
			"target":34962
		},
		{
			"buffer":0,
			"byteLength":5648,
			"byteOffset":143912,
			"target":34962
		},
		{
			"buffer":0,
			"byteLength":2664,
			"byteOffset":149560,
			"target":34963
		}
	],
	"samplers":[
		{
			"magFilter":9729,
			"minFilter":9987
		}
	],
	"buffers":[
		{
			"byteLength":152224,
			"uri":"untitled1.bin"
		}
	]
}
